<svg xmlns="http://www.w3.org/2000/svg" width="270" height="108" viewBox="0 0 270 108"><title>VertipaqAnalyzer</title><g id="Layer_1" data-name="Layer 1"><path d="M121.69,39.91l5.87-20.7h7.93l-9.91,28.44h-7.77L108,19.21h7.87Z" style="fill:#414042"/><path d="M147,48a11.48,11.48,0,0,1-8.15-2.9,9.84,9.84,0,0,1-3.12-7.55V37A12.6,12.6,0,0,1,137,31.32a8.91,8.91,0,0,1,3.63-3.84,11.27,11.27,0,0,1,5.66-1.36,9.65,9.65,0,0,1,7.28,2.76q2.67,2.76,2.67,7.71v2.56H142.69a4.7,4.7,0,0,0,1.6,2.79,4.87,4.87,0,0,0,3.2,1,6.22,6.22,0,0,0,5.06-2.19l3.12,3.55A8.67,8.67,0,0,1,152,47,12.57,12.57,0,0,1,147,48Zm-.77-16.84q-3,0-3.56,3.83h6.88v-.51a3.19,3.19,0,0,0-.83-2.45A3.37,3.37,0,0,0,146.25,31.2Z" style="fill:#414042"/><path d="M172.22,32.47,170,32.31q-3.22,0-4.13,2V47.64H159V26.51h6.39l.22,2.71a5.29,5.29,0,0,1,4.79-3.11,6.87,6.87,0,0,1,1.9.23Z" style="fill:#414042"/><path d="M183.63,21.26v5.25h3.6v4.57h-3.6v9.67a2.41,2.41,0,0,0,.45,1.66,2.44,2.44,0,0,0,1.76.47,10.35,10.35,0,0,0,1.7-.12v4.71a13,13,0,0,1-3.84.57q-3.52,0-5.2-1.6a6.43,6.43,0,0,1-1.68-4.86V31.08H174V26.51h2.79V21.26Z" style="fill:#414042"/><path d="M189.86,21a2.92,2.92,0,0,1,1.05-2.32,4.58,4.58,0,0,1,5.46,0,3.08,3.08,0,0,1,0,4.64,4.58,4.58,0,0,1-5.46,0A2.92,2.92,0,0,1,189.86,21Zm7.24,26.6h-6.84V26.51h6.84Z" style="fill:#414042"/><path d="M208.71,38v9.65h-7.1V19.21h11.75a14.1,14.1,0,0,1,6,1.2,9.28,9.28,0,0,1,4,3.42,9.09,9.09,0,0,1,1.43,5,8.11,8.11,0,0,1-3.08,6.65Q218.62,38,213.24,38Zm0-5.29h4.65a4.49,4.49,0,0,0,3.15-1,3.63,3.63,0,0,0,1.08-2.81,4.48,4.48,0,0,0-1.11-3.18,4,4,0,0,0-3-1.21h-4.73Z" style="fill:#414042"/><path d="M240.37,47.64a7.25,7.25,0,0,1-.65-1.89A6.43,6.43,0,0,1,234.46,48a7.94,7.94,0,0,1-5.26-1.81A5.67,5.67,0,0,1,227,41.69a5.84,5.84,0,0,1,2.63-5.2q2.63-1.76,7.65-1.76h2.1V33.62q0-2.92-2.61-2.92-2.43,0-2.43,2.32h-6.82a5.84,5.84,0,0,1,2.7-5,11.64,11.64,0,0,1,6.89-1.91,10.19,10.19,0,0,1,6.61,2,6.76,6.76,0,0,1,2.49,5.41v9.36a9.3,9.3,0,0,0,.93,4.45v.33Zm-4.27-4.3a3.91,3.91,0,0,0,2.11-.53,3.37,3.37,0,0,0,1.2-1.19V38.25h-2q-3.56,0-3.56,3.09a1.85,1.85,0,0,0,.63,1.46A2.32,2.32,0,0,0,236.1,43.35Z" style="fill:#414042"/><path d="M249.17,36.86q0-5,2.27-7.89a7.54,7.54,0,0,1,6.25-2.85,6.43,6.43,0,0,1,5.38,2.66l.49-2.27h5.91V55.77h-6.84V45.89a6.44,6.44,0,0,1-5,2.15,7.47,7.47,0,0,1-6.18-2.9Q249.17,42.23,249.17,36.86Zm6.82.41q0,5.68,3.4,5.68a3.32,3.32,0,0,0,3.24-1.72V32.88a3.24,3.24,0,0,0-3.2-1.68q-3.18,0-3.42,4.9Z" style="fill:#414042"/><path d="M130.28,74.2H117.94l-2.77,7.44h-4l11.25-28.44h3.4l11.27,28.44h-4Zm-11.17-3.07h10l-5-13.3Z" style="fill:#414042"/><path d="M144,60.51l.12,2.66a8.08,8.08,0,0,1,6.55-3q6.94,0,7,7.56v14h-3.74v-14a4.76,4.76,0,0,0-1.08-3.38,4.43,4.43,0,0,0-3.31-1.09,5.54,5.54,0,0,0-3.2.94,6.43,6.43,0,0,0-2.14,2.46V81.64h-3.74V60.51Z" style="fill:#414042"/><path d="M176.82,81.64a7.38,7.38,0,0,1-.53-2.23A8.49,8.49,0,0,1,170.07,82a7.89,7.89,0,0,1-5.31-1.77,5.63,5.63,0,0,1-2.07-4.48,5.91,5.91,0,0,1,2.6-5.13q2.6-1.83,7.31-1.83h3.64V67.17a4,4,0,0,0-1.17-3A4.82,4.82,0,0,0,171.61,63a5.59,5.59,0,0,0-3.36,1,2.85,2.85,0,0,0-1.35,2.36h-3.76a4.88,4.88,0,0,1,1.16-3.06A7.91,7.91,0,0,1,167.45,61a10.94,10.94,0,0,1,4.38-.86,8.85,8.85,0,0,1,5.93,1.83A6.48,6.48,0,0,1,180,67V76.7a11.53,11.53,0,0,0,.77,4.63v.31Zm-6.21-2.75A6.76,6.76,0,0,0,174,78a5.4,5.4,0,0,0,2.29-2.29V71.39H173.3q-6.88,0-6.88,3.89a3.24,3.24,0,0,0,1.17,2.66A4.61,4.61,0,0,0,170.61,78.89Z" style="fill:#414042"/><path d="M189.91,81.64h-3.74v-30h3.74Z" style="fill:#414042"/><path d="M203.06,76.35l5.1-15.84h4l-8.8,24.39q-2,5.27-6.49,5.27l-.71-.06-1.4-.25V86.94l1,.08a5.11,5.11,0,0,0,3-.74,5.35,5.35,0,0,0,1.75-2.71l.83-2.15-7.81-20.9h4.09Z" style="fill:#414042"/><path d="M219,78.7h12.8v2.95H214.45V79L226.52,63.5H214.63v-3h16.59v2.56Z" style="fill:#414042"/><path d="M244.79,82a9.74,9.74,0,0,1-7.24-2.82,10.27,10.27,0,0,1-2.79-7.55V71A12.32,12.32,0,0,1,236,65.38a9.48,9.48,0,0,1,3.48-3.87,9,9,0,0,1,4.84-1.4A8.33,8.33,0,0,1,251,62.84q2.37,2.71,2.37,7.77v1.5H238.5a7.36,7.36,0,0,0,1.89,5,6,6,0,0,0,4.6,1.92,6.71,6.71,0,0,0,3.36-.78,8.34,8.34,0,0,0,2.41-2.07L253,78Q250.29,82,244.79,82Zm-.47-18.95a5.07,5.07,0,0,0-3.8,1.59,7.6,7.6,0,0,0-1.9,4.46h11v-.27A6.75,6.75,0,0,0,248,64.6,4.78,4.78,0,0,0,244.32,63.09Z" style="fill:#414042"/><path d="M268.23,63.75a11.65,11.65,0,0,0-1.84-.14,4.94,4.94,0,0,0-5,3v15h-3.74V60.51h3.64l.06,2.44a5.87,5.87,0,0,1,5.22-2.83,3.94,3.94,0,0,1,1.66.27Z" style="fill:#414042"/><path d="M88.25,20.27C86.75,27.36,67.7,33,44.4,33,24.86,33,8.31,29,2.59,23.57v55C8.15,73,24.74,69,44.4,69,67.86,69,87.07,74.78,88.25,82c0-.05,0-.51,0-.75Z" style="fill:#c4dbca"/><path d="M77.19,101.31,61.82,87A30.89,30.89,0,0,1,17.49,60.18,31.3,31.3,0,0,1,32.6,32.48C14.89,30.93,1.7,26.08.54,20.27c0,0,0,.46,0,.69V94.23c0,7.5,19.64,13.57,43.85,13.57,14,0,26.52-2,34.54-5.22A9.55,9.55,0,0,1,77.19,101.31Z" style="fill:#468f5a"/><ellipse cx="44.4" cy="13.14" rx="41.81" ry="12.94" style="fill:#468f5a"/><path d="M39.11,63a16.3,16.3,0,0,1,12.55-16.4,12.84,12.84,0,0,0-3.27-.43h-.45a12.93,12.93,0,0,0-7.2,23.36A16.19,16.19,0,0,1,39.11,63Z" style="fill:#468f5a"/><path d="M86.83,91,70.14,75.38a5,5,0,0,0-1.06-.65,26.17,26.17,0,1,0-6.22,5.87,4.51,4.51,0,0,0,1.05,1.47L80.59,97.64A4.58,4.58,0,0,0,87,97.42a4.53,4.53,0,0,0,1.23-3.27A4.48,4.48,0,0,0,86.83,91ZM62.71,69.92l-1.78,2.35L58.4,74a17.85,17.85,0,1,1,4.31-4.07Z" style="fill:#468f5a"/></g></svg>